<svg xmlns="http://www.w3.org/2000/svg" style="display: none;">
<symbol id="close" viewBox="0 0 24 24"><path fill="currentColor" d="M18.3 5.71a.996.996 0 0 0-1.41 0L12 10.59L7.11 5.7A.996.996 0 1 0 5.7 7.11L10.59 12L5.7 16.89a.996.996 0 1 0 1.41 1.41L12 13.41l4.89 4.89a.996.996 0 1 0 1.41-1.41L13.41 12l4.89-4.89c.38-.38.38-1.02 0-1.4"/></symbol>
<symbol id="delete" viewBox="0 0 24 24"><path fill="none" stroke="currentColor" stroke-linecap="round" stroke-linejoin="round" stroke-width="2" d="M10 5a2 2 0 0 0-1.344.519l-6.328 5.74a1 1 0 0 0 0 1.481l6.328 5.741A2 2 0 0 0 10 19h10a2 2 0 0 0 2-2V7a2 2 0 0 0-2-2zm2 4l6 6m0-6l-6 6"/></symbol>
<symbol id="pen" viewBox="0 0 24 24"><path fill="none" stroke="currentColor" stroke-linecap="round" stroke-linejoin="round" stroke-width="2" d="m2.777 19.783l.607-4.162c.037-.272.161-.525.355-.72L15.5 3.124a1.26 1.26 0 0 1 1.19-.341a6.2 6.2 0 0 1 2.832 1.694a6.2 6.2 0 0 1 1.682 2.846a1.26 1.26 0 0 1-.341 1.19L9.089 20.275a1.26 1.26 0 0 1-.721.354l-4.161.607a1.264 1.264 0 0 1-1.43-1.454M13.275 5.364l5.363 5.363"/></symbol>
<symbol id="plus" viewBox="0 0 24 24"><path fill="none" stroke="currentColor" stroke-linecap="round" stroke-linejoin="round" stroke-width="2" d="M12 5v14m-7-7h14"/></symbol>
</svg>